# xmcd
#
# Track frame offsets:
#	150
#	13962
#	27200
#	45387
#	59850
#	76900
#	92525
#	107700
#	130637
#	145487
#
# Disc length: 2135 seconds
#
# Revision: 2
# Processed by: cddbd v1.4PL0 Copyright (c) Steve Scherf et al.
# Submitted via: CDmax 1.9
#
DISCID=8108550a
DTITLE=Various Artist - Christmas with the Legends of Country
DYEAR=1994
DGENRE=Country
TTITLE0=Lee Greenwood - What Child is This?
TTITLE1=Roy Clark - God Rest You Merry Gentlemen
TTITLE2=Brenda Lee - Silent Night
TTITLE3=Loretta Lynn - Deck the Halls
TTITLE4=Charley Pride - O Little Town of Bethlehem
TTITLE5=Roy Clark - It Came Upon a Midnight Clear
TTITLE6=Brenda Lee - O Come, All Ye Faithful
TTITLE7=Lee Greenwood - The 12 Days of Christmas
TTITLE8=Loretta Lynn - Away in a Manger
TTITLE9=Charley Pride - Joy to the World
EXTD=
EXTT0=
EXTT1=
EXTT2=
EXTT3=
EXTT4=
EXTT5=
EXTT6=
EXTT7=
EXTT8=
EXTT9=
PLAYORDER=
